<?xml version="1.0" standalone="no"?>
<!DOCTYPE svg PUBLIC "-//W3C//DTD SVG 20010904//EN"
 "http://www.w3.org/TR/2001/REC-SVG-20010904/DTD/svg10.dtd">
<svg version="1.0" xmlns="http://www.w3.org/2000/svg"
 width="4438.000000pt" height="1009.000000pt" viewBox="0 0 4438.000000 1009.000000"
 preserveAspectRatio="xMidYMid meet">
<metadata>
Created by potrace 1.16, written by Peter Selinger 2001-2019
</metadata>
<g transform="translate(0.000000,1009.000000) scale(0.100000,-0.100000)"
fill="#000000" stroke="none">
<path d="M0 8276 l0 -1814 73 20 c74 21 106 36 52 25 -16 -4 -41 -9 -55 -12
-14 -3 -3 3 24 12 45 16 49 16 61 0 6 -9 15 -13 20 -9 4 4 0 -8 -9 -26 -9 -18
-21 -30 -26 -27 -5 3 -12 0 -16 -6 -4 -8 -3 -9 4 -5 15 9 15 1 1 -25 -5 -11
-14 -17 -19 -14 -5 3 -12 0 -16 -6 -4 -8 -3 -9 4 -5 15 9 15 1 1 -25 -5 -11
-14 -17 -19 -14 -5 3 -12 0 -16 -6 -4 -8 -3 -9 4 -5 18 11 15 0 -19 -59 -17
-30 -35 -53 -40 -49 -5 3 -9 -1279 -9 -3110 l0 -3116 22190 0 22190 0 0 5045
0 5045 -22190 0 -22190 0 0 -1814z m29735 339 c895 -118 1483 -732 1626 -1699
72 -492 32 -1029 -108 -1446 -226 -677 -709 -1106 -1388 -1236 -187 -35 -559
-45 -754 -20 -911 120 -1491 728 -1635 1716 -57 392 -36 886 53 1237 218 860
768 1350 1636 1456 89 11 464 6 570 -8z m13105 -29 c275 -38 604 -121 849
-215 l126 -48 3 -336 2 -337 -26 0 c-15 0 -53 20 -93 48 -275 199 -666 345
-1064 397 -172 22 -455 20 -599 -5 -343 -58 -597 -234 -679 -470 -19 -53 -23
-87 -24 -180 0 -131 13 -195 60 -295 65 -137 199 -235 415 -303 123 -39 217
-59 600 -127 553 -98 777 -156 980 -255 154 -76 235 -132 341 -239 84 -84 103
-110 148 -201 157 -320 149 -721 -22 -1054 -128 -251 -329 -437 -627 -580
-202 -97 -398 -151 -648 -177 -152 -16 -656 -6 -812 15 -310 43 -582 117 -907
248 l-153 61 0 358 0 359 25 0 c15 0 59 -26 112 -66 292 -220 674 -380 1103
-461 138 -26 576 -26 705 0 406 81 666 280 724 555 18 85 14 238 -9 326 -27
106 -63 168 -138 237 -148 135 -373 207 -932 298 -490 80 -724 139 -927 236
-339 160 -546 410 -612 740 -56 279 -29 529 79 750 61 123 125 209 235 314
236 222 543 360 935 416 131 19 669 13 830 -9z m-39625 -1213 c307 -643 561
-1171 564 -1175 3 -3 250 521 548 1165 l541 1172 401 3 401 2 0 -2125 0 -2125
-290 0 -290 0 -2 1812 -3 1811 -580 -1226 -580 -1226 -176 -1 -176 0 -579
1231 -579 1231 -3 -1816 -2 -1816 -265 0 -265 0 0 2125 0 2125 389 0 388 0
558 -1167z m5400 1150 c18 -46 1528 -4200 1532 -4216 5 -16 -12 -17 -302 -15
l-307 3 -207 587 -206 588 -914 -3 -913 -2 -207 -587 -206 -588 -294 0 c-230
0 -292 3 -288 13 2 6 350 963 772 2125 l769 2112 382 0 c354 0 382 -1 389 -17z
m3707 2 c314 -37 546 -115 752 -254 214 -145 382 -371 446 -601 50 -180 65
-447 35 -640 -86 -567 -509 -997 -1096 -1114 -198 -40 -295 -46 -709 -46
l-390 0 0 -790 0 -790 -285 0 -285 0 0 2125 0 2125 703 0 c558 0 728 -3 829
-15z m2558 -1860 l0 -1875 1060 0 1060 0 0 -250 0 -250 -1345 0 -1345 0 0
2125 0 2125 285 0 285 0 0 -1875z m5480 1625 l0 -250 -1115 0 -1115 0 0 -585
0 -585 1115 0 1115 0 0 -250 0 -250 -1115 0 -1115 0 0 -790 0 -790 1115 0
1115 0 0 -250 0 -250 -1400 0 -1400 0 0 2125 0 2125 1400 0 1400 0 0 -250z
m3510 -585 l0 -835 1055 0 1055 0 0 835 0 835 285 0 285 0 0 -2125 0 -2125
-285 0 -285 0 0 1040 0 1040 -1055 0 -1055 0 0 -1040 0 -1040 -285 0 -285 0 0
2125 0 2125 285 0 285 0 0 -835z m9755 -332 c307 -643 561 -1171 564 -1175 3
-3 250 521 548 1165 l541 1172 401 3 401 2 0 -2125 0 -2125 -290 0 -290 0 -2
1812 -3 1811 -580 -1226 -580 -1226 -176 -1 -176 0 -579 1231 -579 1231 -3
-1816 -2 -1816 -265 0 -265 0 0 2125 0 2125 389 0 388 0 558 -1167z m6385 917
l0 -250 -1115 0 -1115 0 0 -585 0 -585 1115 0 1115 0 0 -250 0 -250 -1115 0
-1115 0 0 -790 0 -790 1115 0 1115 0 0 -250 0 -250 -1400 0 -1400 0 0 2125 0
2125 1400 0 1400 0 0 -250z m-2460 -5845 c58 -15 133 -38 168 -52 l62 -25 0
-129 c0 -106 -3 -129 -14 -129 -8 0 -44 18 -80 41 -76 47 -222 101 -322 119
-98 17 -295 9 -354 -15 -124 -50 -180 -121 -180 -225 0 -84 27 -139 85 -178
55 -37 113 -53 350 -96 271 -50 368 -86 461 -170 69 -62 105 -142 112 -251 13
-222 -108 -397 -338 -488 -94 -37 -165 -47 -331 -47 -201 0 -330 24 -521 98
l-68 26 0 138 c0 159 0 159 79 103 65 -47 198 -109 296 -137 69 -20 102 -23
240 -23 144 0 166 3 218 24 131 52 192 129 191 242 -2 157 -83 209 -409 264
-280 47 -400 92 -490 182 -110 109 -144 297 -84 458 30 80 135 187 231 233
128 62 189 73 403 68 166 -3 203 -7 295 -31z m-8108 -9 c131 -25 232 -86 301
-179 51 -68 70 -140 69 -257 -1 -199 -89 -349 -256 -436 -31 -16 -56 -32 -56
-36 0 -4 133 -161 295 -348 162 -188 295 -343 295 -345 0 -3 -65 -5 -144 -5
l-145 0 -271 320 -271 320 -145 0 -144 0 0 -320 0 -320 -115 0 -115 0 0 810 0
810 314 0 c230 0 334 -4 388 -14z m1928 -81 l0 -95 -425 0 -425 0 0 -225 0
-225 425 0 425 0 0 -95 0 -95 -425 0 -425 0 0 -300 0 -300 425 0 425 0 0 -95
0 -95 -540 0 -540 0 0 810 0 810 540 0 540 0 0 -95z m1322 -700 c158 -434 290
-798 294 -808 5 -16 -3 -17 -116 -15 l-122 3 -78 220 -77 220 -345 3 -345 2
-77 -216 c-42 -118 -76 -220 -76 -225 0 -5 -54 -9 -120 -9 l-120 0 11 28 c10
25 550 1505 571 1565 l10 28 151 -3 151 -3 288 -790z m758 80 l0 -715 405 0
405 0 0 -95 0 -95 -520 0 -520 0 0 810 0 810 115 0 115 0 0 -715z m2870 620
l0 -95 -425 0 -425 0 0 -225 0 -225 425 0 425 0 0 -95 0 -95 -425 0 -425 0 0
-300 0 -300 425 0 425 0 0 -95 0 -95 -540 0 -540 0 0 810 0 810 540 0 540 0 0
-95z m3020 0 l0 -95 -290 0 -290 0 0 -715 0 -715 -115 0 -115 0 0 715 0 715
-285 0 -285 0 0 95 0 95 690 0 690 0 0 -95z m1192 -700 c158 -434 290 -798
294 -808 5 -16 -3 -17 -116 -15 l-122 3 -78 220 -77 220 -345 3 -345 2 -77
-216 c-42 -118 -76 -220 -76 -225 0 -5 -54 -9 -120 -9 l-120 0 11 28 c10 25
550 1505 571 1565 l10 28 151 -3 151 -3 288 -790z m1698 700 l0 -95 -290 0
-290 0 0 -715 0 -715 -115 0 -115 0 0 715 0 715 -285 0 -285 0 0 95 0 95 690
0 690 0 0 -95z m1280 0 l0 -95 -425 0 -425 0 0 -225 0 -225 425 0 425 0 0 -95
0 -95 -425 0 -425 0 0 -300 0 -300 425 0 425 0 0 -95 0 -95 -540 0 -540 0 0
810 0 810 540 0 540 0 0 -95z"/>
<path d="M29145 8111 c-477 -85 -825 -403 -990 -904 -82 -250 -110 -455 -110
-802 1 -262 10 -361 50 -560 122 -602 484 -1002 1015 -1120 100 -22 411 -32
522 -16 248 36 440 117 625 266 234 187 406 487 483 840 50 232 71 571 51 825
-40 509 -181 868 -445 1134 -186 188 -403 296 -681 341 -126 21 -392 18 -520
-4z"/>
<path d="M8206 8010 c-3 -8 -170 -472 -370 -1030 l-363 -1015 368 -3 c203 -1
535 -1 738 0 l369 3 -364 1020 c-200 561 -366 1025 -368 1030 -2 6 -6 3 -10
-5z"/>
<path d="M11360 7205 l0 -845 208 0 c277 1 558 15 673 35 278 48 460 157 597
358 105 152 149 348 131 582 -28 361 -251 596 -639 675 -125 26 -375 39 -722
40 l-248 0 0 -845z"/>
<path d="M28970 1960 l0 -303 168 7 c223 9 293 28 358 98 61 64 78 112 79 218
0 87 -2 99 -28 143 -34 58 -98 101 -170 117 -29 6 -132 14 -229 17 l-178 6 0
-303z"/>
<path d="M32111 1867 c-74 -205 -136 -378 -139 -384 -3 -10 55 -13 272 -13
152 0 276 3 276 6 0 8 -260 735 -269 751 -3 7 -67 -155 -140 -360z"/>
<path d="M39951 1867 c-74 -205 -136 -378 -139 -384 -3 -10 55 -13 272 -13
152 0 276 3 276 6 0 8 -260 735 -269 751 -3 7 -67 -155 -140 -360z"/>
</g>
</svg>
